<svg width="69" height="69" viewBox="0 0 69 69" fill="none" xmlns="http://www.w3.org/2000/svg">
<g id="chef 1" clip-path="url(#clip0_80_1485)">
<path id="Vector" d="M27.8369 52.0664L33.3295 59.8421L44.7821 49.5227L58.2033 42.2718L49.0997 29.3841C53.2732 26.3229 54.2416 20.471 51.2432 16.2263C48.2115 11.9343 42.2744 10.9127 37.9824 13.9445C36.1851 15.214 34.9639 16.9938 34.371 18.9481C31.1406 16.1981 26.3427 15.8673 22.7179 18.4277C19.0932 20.9882 17.8013 25.6207 19.3133 29.5846C17.2732 29.4901 15.1876 30.0462 13.3903 31.3158C9.09821 34.3477 8.0766 40.2847 11.1084 44.5767C14.1068 48.8215 19.9458 49.8647 24.2259 46.9545L26.1623 49.6958L27.8369 52.0664Z" fill="#F2F2F2"/>
<path id="Vector_2" d="M29.7183 47.1844L27.7819 44.4431C23.5018 47.3533 17.6627 46.31 14.6643 42.0653C12.0648 38.3852 12.4476 33.4972 15.3146 30.2667C14.6486 30.5361 14.0025 30.8838 13.3904 31.3162C9.09848 34.3479 8.07687 40.285 11.1086 44.577C14.1071 48.8218 19.9461 49.8649 24.2262 46.9547L26.1626 49.696L27.8371 52.0666L33.3297 59.8424L36.8855 57.3306L31.3929 49.5549L29.7183 47.1844Z" fill="#E6E6E6"/>
<path id="Vector_3" d="M58.2041 42.2725L54.5926 37.1598L41.0142 45.383L29.7189 54.7301L33.3304 59.8428L45.286 50.1007L58.2041 42.2725Z" fill="#974E44"/>
<path id="Vector_4" d="M33.2745 52.2183L29.7188 54.73L33.3303 59.8427L36.886 57.331L33.2745 52.2183Z" fill="#B55D51" fill-opacity="0.972549"/>
</g>
<defs>
<clipPath id="clip0_80_1485">
<rect width="49.138" height="49.138" fill="white" transform="translate(0 28.8506) rotate(-35.2366)"/>
</clipPath>
</defs>
</svg>
